HIERARCHY
ROOT Pelvis
{
	OFFSET 0.000000 0.000000 0.000000
	CHANNELS 6 Xposition Yposition Zposition Xrotation Yrotation Zrotation
	JOINT LeftUpLeg_virtual
	{
		OFFSET 0.000000 0.000000 0.000000
		CHANNELS 3 Xrotation Yrotation Zrotation
		JOINT LeftUpLeg
		{
			OFFSET 8.479700 -4.795502 -0.379100
			CHANNELS 3 Xrotation Yrotation Zrotation
			JOINT LeftLeg
			{
				OFFSET 0.024144 -32.555107 0.112900
				CHANNELS 3 Xrotation Yrotation Zrotation
				JOINT LeftFoot
				{
					OFFSET -0.024144 -32.638630 -3.012600
					CHANNELS 3 Xrotation Yrotation Zrotation
					JOINT LeftToeBase
					{
						OFFSET 0.970200 -13.225400 11.864200
						CHANNELS 3 Xrotation Yrotation Zrotation
						End Site
						{
							OFFSET 0 0 0
						}
					}
				}
			}
		}
	}
	JOINT RightUpLeg_virtual
	{
		OFFSET 0.000000 0.000000 0.000000
		CHANNELS 3 Xrotation Yrotation Zrotation
		JOINT RightUpLeg
		{
			OFFSET -8.479700 -4.795502 -0.379100
			CHANNELS 3 Xrotation Yrotation Zrotation
			JOINT RightLeg
			{
				OFFSET -0.023144 -32.555092 0.112900
				CHANNELS 3 Xrotation Yrotation Zrotation
				JOINT RightFoot
				{
					OFFSET 0.023144 -32.638641 -3.012700
					CHANNELS 3 Xrotation Yrotation Zrotation
					JOINT RightToeBase
					{
						OFFSET -0.970200 -13.225400 11.864200
						CHANNELS 3 Xrotation Yrotation Zrotation
						End Site
						{
							OFFSET 0 0 0
						}
					}
				}
			}
		}
	}
	JOINT Hips_virtual
	{
		OFFSET 0.000000 0.000000 0.000000
		CHANNELS 3 Xrotation Yrotation Zrotation
		JOINT Hips
		{
			OFFSET -0.000000 -0.000000 -0.000000
			CHANNELS 3 Xrotation Yrotation Zrotation
			JOINT Spine
			{
				OFFSET 0.000000 7.722000 1.166200
				CHANNELS 3 Xrotation Yrotation Zrotation
				JOINT Spine1
				{
					OFFSET 0.000000 12.024101 0.248800
					CHANNELS 3 Xrotation Yrotation Zrotation
					JOINT Spine2
					{
						OFFSET 0.000000 11.502998 -0.491200
						CHANNELS 3 Xrotation Yrotation Zrotation
						JOINT Neck_virtual
						{
							OFFSET 0.000000 0.000000 0.000000
							CHANNELS 3 Xrotation Yrotation Zrotation
							JOINT Neck
							{
								OFFSET 0.000000 18.430702 -3.123100
								CHANNELS 3 Xrotation Yrotation Zrotation
								JOINT Head
								{
									OFFSET 0.000000 9.051102 1.034000
									CHANNELS 3 Xrotation Yrotation Zrotation
									End Site
									{
										OFFSET 0 0 0
									}
								}
							}
						}
						JOINT LeftShoulder_virtual
						{
							OFFSET 0.000000 0.000000 0.000000
							CHANNELS 3 Xrotation Yrotation Zrotation
							JOINT LeftShoulder
							{
								OFFSET 6.197800 13.665199 -4.064700
								CHANNELS 3 Xrotation Yrotation Zrotation
								JOINT LeftArm
								{
									OFFSET 7.778100 -0.187103 -1.709300
									CHANNELS 3 Xrotation Yrotation Zrotation
									JOINT LeftForeArm
									{
										OFFSET 22.049376 0.000000 0.000000
										CHANNELS 3 Xrotation Yrotation Zrotation
										JOINT LeftHand
										{
											OFFSET 23.009392 0.000000 0.000000
											CHANNELS 3 Xrotation Yrotation Zrotation
											End Site
											{
												OFFSET 0 0 0
											}
										}
									}
								}
							}
						}
						JOINT RightShoulder_virtual
						{
							OFFSET 0.000000 0.000000 0.000000
							CHANNELS 3 Xrotation Yrotation Zrotation
							JOINT RightShoulder
							{
								OFFSET -6.197800 13.665199 -4.064700
								CHANNELS 3 Xrotation Yrotation Zrotation
								JOINT RightArm
								{
									OFFSET -7.778100 -0.187103 -1.709300
									CHANNELS 3 Xrotation Yrotation Zrotation
									JOINT RightForeArm
									{
										OFFSET -22.049376 0.000000 0.000000
										CHANNELS 3 Xrotation Yrotation Zrotation
										JOINT RightHand
										{
											OFFSET -23.009392 0.000000 0.000000
											CHANNELS 3 Xrotation Yrotation Zrotation
											End Site
											{
												OFFSET 0 0 0
											}
										}
									}
								}
							}
						}
					}
				}
			}
		}
	}
}
MOTION
Frames: 4
Frame Time: 0.03333333
-0.169195 73.867844 0.174997 0.000000 0.000000 0.000000 3.016509 -58.257354 6.570238 -35.249705 10.175262 24.287698 43.161437 -7.481313 -9.789107 -9.609689 -2.806334 -8.082836 0.000000 0.000000 0.000000 3.016509 -58.257354 6.570238 -32.837798 -8.272810 -25.543234 48.058430 2.420122 -7.553103 -19.172841 2.835359 20.742970 0.000000 0.000000 0.000000 3.016509 -58.257354 6.570238 0.000000 0.000001 0.000000 11.191590 0.111554 -2.787778 8.434590 0.027713 -5.592322 0.000000 0.000000 0.000000 8.457051 0.027854 -5.591869 -21.555717 25.063299 12.062591 0.000000 0.000000 0.000000 8.457051 0.027854 -5.591869 -6.221659 -11.503847 -4.023810 -23.062122 9.568698 -36.639652 0.046189 -43.169422 -0.011129 0.000000 0.000000 0.000000 8.457051 0.027854 -5.591869 -5.488244 10.658279 2.466538 -41.473790 -26.755632 30.079081 -155.044761 68.136915 156.691752 0.000000 0.000000 0.000000 
-0.158002 73.859901 0.157684 0.000000 0.000000 0.000000 3.041148 -58.231638 6.552361 -35.327562 10.162274 24.335993 43.187068 -7.537033 -9.774908 -9.592742 -2.801695 -8.079805 0.000000 0.000000 0.000000 3.041148 -58.231638 6.552361 -32.853309 -8.258441 -25.500983 48.086980 2.392964 -7.536263 -19.186768 2.820508 20.793881 0.000000 0.000000 0.000000 3.041148 -58.231638 6.552361 0.000000 -0.000004 0.000000 11.154805 0.128484 -2.743870 8.361921 0.067335 -5.504499 0.000000 0.000000 0.000000 8.384386 0.067497 -5.504040 -20.955324 25.198834 11.976182 0.000000 0.000000 0.000000 8.384386 0.067497 -5.504040 -5.897214 -11.434716 -4.094846 -23.105792 9.541879 -36.578180 -0.430850 -43.369078 0.211679 0.000000 0.000000 0.000000 8.384386 0.067497 -5.504040 -5.087703 10.716897 2.386527 -41.616705 -26.593130 29.801403 -152.951308 68.123829 154.689045 0.000000 0.000000 0.000000 
-0.142997 73.844566 0.141804 0.000000 0.000000 0.000000 3.078424 -58.215963 6.550822 -35.420111 10.142052 24.381549 43.244072 -7.572180 -9.762522 -9.591882 -2.800008 -8.079888 0.000000 0.000000 0.000000 3.078424 -58.215963 6.550822 -32.894072 -8.229554 -25.458973 48.141267 2.370711 -7.536333 -19.207535 2.798822 20.861365 0.000000 0.000000 0.000000 3.078424 -58.215963 6.550822 0.000000 0.000001 0.000000 11.182518 0.143112 -2.709300 8.418549 0.098050 -5.435015 0.000000 0.000000 0.000000 8.441000 0.098159 -5.434542 -20.687892 25.289872 11.929350 0.000000 0.000000 0.000000 8.441000 0.098159 -5.434542 -5.908040 -11.406745 -4.124969 -23.202742 9.567588 -36.508351 -0.784466 -43.550092 0.142521 0.000000 0.000000 0.000000 8.441000 0.098159 -5.434542 -4.944350 10.745120 2.290185 -41.728139 -26.359940 29.303725 -148.759772 67.825363 150.764268 0.000000 0.000000 0.000000 
-0.125438 73.830887 0.128120 0.000000 0.000000 0.000000 3.121422 -58.209276 6.558250 -35.507609 10.122393 24.417882 43.299264 -7.598684 -9.748128 -9.593194 -2.796742 -8.081507 0.000000 0.000000 0.000000 3.121422 -58.209276 6.558250 -32.936624 -8.191856 -25.420642 48.186667 2.354140 -7.535527 -19.219924 2.773697 20.936961 0.000000 0.000000 0.000000 3.121422 -58.209276 6.558250 0.000000 0.000002 0.000000 11.206754 0.157590 -2.676657 8.467457 0.128420 -5.368924 0.000000 0.000000 0.000000 8.489927 0.128549 -5.368457 -20.398459 25.378645 11.886849 0.000000 0.000000 0.000000 8.489927 0.128549 -5.368457 -5.914315 -11.396587 -4.145974 -23.347111 9.645223 -36.446781 -1.115192 -43.763409 0.039133 0.000000 0.000000 0.000000 8.489927 0.128549 -5.368457 -4.707634 10.766313 2.133765 -41.787213 -26.098332 28.599068 -150.151969 68.738819 152.052565 0.000000 0.000000 0.000000 
